<?xml version="1.0" standalone="no"?>
<!DOCTYPE svg PUBLIC "-//W3C//DTD SVG 20010904//EN"
 "http://www.w3.org/TR/2001/REC-SVG-20010904/DTD/svg10.dtd">
<svg version="1.0" xmlns="http://www.w3.org/2000/svg"
 width="1336.000000pt" height="1336.000000pt" viewBox="0 0 1336.000000 1336.000000"
 preserveAspectRatio="xMidYMid meet">
<metadata>
Created by potrace 1.14, written by Peter Selinger 2001-2017
</metadata>
<g transform="translate(0.000000,1336.000000) scale(0.100000,-0.100000)"
fill="#000000" stroke="none">
<path d="M6499 11626 c-2 -2 -44 -6 -94 -10 -49 -3 -99 -8 -110 -10 -11 -2
-47 -7 -80 -11 -33 -3 -78 -10 -100 -15 -22 -5 -59 -11 -82 -15 -24 -3 -95
-19 -158 -35 -556 -143 -1030 -393 -1460 -771 -292 -257 -546 -566 -742 -904
-43 -74 -183 -350 -183 -361 0 -3 -6 -20 -14 -37 -129 -295 -225 -657 -262
-989 -3 -29 -8 -64 -12 -78 -3 -14 -8 -1420 -10 -3125 -2 -2325 0 -3114 8
-3155 35 -163 145 -292 308 -358 63 -25 76 -27 212 -26 167 1 318 30 475 91
80 30 252 116 265 132 3 4 23 18 45 33 138 90 322 288 409 438 62 106 144 307
162 394 39 189 37 65 39 2726 1 1394 5 2567 9 2605 12 120 37 236 76 356 21
64 43 125 48 135 5 10 29 57 52 104 169 337 461 611 805 755 42 18 176 63 210
71 22 5 106 23 145 30 52 10 368 13 420 3 30 -5 73 -12 95 -15 54 -8 195 -50
275 -81 476 -185 850 -613 964 -1106 34 -144 41 -208 40 -362 0 -197 -20 -323
-76 -490 -135 -402 -418 -729 -794 -918 -101 -51 -283 -117 -321 -117 -13 0
-37 12 -52 28 l-28 27 -1 256 c-1 287 -5 307 -66 354 -43 33 -103 37 -153 12
-17 -9 -107 -103 -199 -209 -93 -106 -171 -195 -174 -198 -3 -3 -48 -54 -100
-115 -52 -60 -99 -115 -105 -121 -5 -6 -37 -41 -70 -79 -33 -38 -69 -78 -80
-91 -11 -12 -33 -37 -49 -55 -60 -69 -251 -284 -256 -289 -3 -3 -48 -54 -100
-115 -52 -60 -100 -113 -106 -117 -6 -4 -24 -36 -40 -70 -24 -54 -28 -76 -29
-153 0 -81 3 -96 32 -155 17 -36 46 -81 63 -100 32 -35 274 -308 310 -350 11
-12 50 -56 87 -98 89 -100 145 -163 218 -247 33 -38 65 -73 70 -79 6 -7 39
-45 74 -86 36 -41 69 -80 75 -85 6 -6 36 -39 66 -75 30 -36 59 -70 65 -76 5
-6 37 -42 70 -80 158 -182 188 -205 260 -199 17 2 35 3 42 4 6 1 25 13 43 27
59 50 61 60 63 349 2 322 -7 301 142 320 480 59 946 221 1363 472 375 226 681
496 968 856 179 225 363 545 483 839 41 103 94 251 107 303 2 6 12 42 22 80
24 82 69 284 76 335 3 19 12 84 20 145 18 122 30 310 30 455 0 99 -12 336 -19
370 -2 10 -6 45 -10 77 -6 61 -29 198 -46 273 -5 25 -11 54 -13 66 -11 58 -72
269 -108 372 -78 224 -208 497 -331 692 -52 83 -173 256 -206 296 -14 17 -42
51 -61 75 -95 119 -280 309 -410 420 -41 35 -77 66 -80 69 -15 16 -148 115
-230 172 -310 214 -668 383 -1025 483 -107 30 -285 72 -340 80 -11 2 -54 8
-95 14 -41 7 -97 14 -125 17 -27 3 -66 8 -85 10 -42 7 -515 16 -521 10z"/>
</g>
</svg>
